# Blender 3.5.1
# www.blender.org
mtllib calcada.mtl
o Cube
v 6.420141 0.000000 -3.065607
v 6.420141 0.000000 14.233496
v -6.420141 0.000000 -3.065607
v -6.420141 0.000000 14.233496
v -5.697483 0.500000 -2.499746
v 5.717181 0.500000 -2.499746
v -5.697483 0.500000 13.617950
v 5.717181 0.500000 13.617950
v -6.420141 0.674951 14.233496
v 6.420141 0.674951 14.233496
v -6.420141 0.674951 -3.065607
v 6.420141 0.674951 -3.065607
v 5.717181 0.674951 -2.499746
v 5.717181 0.674951 13.617950
v -5.697483 0.674951 -2.499746
v -5.697483 0.674951 13.617950
vn -0.0000 -1.0000 -0.0000
vn -0.0000 -0.0000 -1.0000
vn -1.0000 -0.0000 -0.0000
vn -0.0000 1.0000 -0.0000
vn 1.0000 -0.0000 -0.0000
vn -0.0000 -0.0000 1.0000
vt 0.994282 -0.001056
vt 1.866069 0.080617
vt 1.340949 -0.002662
vt 0.994282 1.000528
vt -0.641041 -0.000782
vt 1.287596 0.067558
vt 0.003958 -0.001056
vt 0.003496 0.080617
vt -0.401153 0.004468
vt 0.003958 1.000528
vt 1.526565 0.004468
vt -0.575087 0.066151
vt 0.996002 0.003497
vt 0.940147 0.503958
vt -0.991643 0.003497
vt 0.609101 0.503958
vt 0.996002 2.337298
vt 0.940147 0.752243
vt -0.991643 2.337298
vt 0.609101 0.752243
vt 1.339462 0.073509
vt 1.199002 0.005383
vt 1.526210 0.073729
vt -0.575087 0.000573
vt -0.520672 0.073509
vt 1.062769 0.065975
vt -0.641041 0.065760
vt 1.287596 0.000000
vt 0.003496 0.006173
vt 1.097379 0.063360
vt -0.741178 0.005383
vt -0.403388 0.073729
vt 1.866069 0.006173
vt -0.772853 0.063360
vt -0.910070 0.058517
vt 1.341490 0.068269
vt -0.677621 0.022623
vt -0.820986 -0.001934
vt 0.609101 0.503958
vt -0.421966 0.002564
vt 0.609101 0.752243
vt 0.996152 0.002894
vt 1.008807 0.022623
vt -0.685450 0.080529
vt 0.940147 0.503958
vt 1.230015 0.002564
vt 1.131298 0.080529
vt 0.940147 0.752243
s 0
usemtl Material
f 1/1/1 2/4/1 4/10/1 3/7/1
f 12/33/2 1/2/2 3/8/2 11/29/2
f 6/16/3 8/20/3 14/41/3 13/39/3
f 14/40/4 16/46/4 9/21/4 10/25/4
f 6/15/4 5/13/4 7/17/4 8/19/4
f 8/20/2 7/18/2 16/48/2 14/41/2
f 12/34/4 11/30/4 15/43/4 13/37/4
f 13/38/4 14/42/4 10/26/4 12/35/4
f 11/31/4 9/22/4 16/47/4 15/44/4
f 7/18/5 5/14/5 15/45/5 16/48/5
f 5/14/6 6/16/6 13/39/6 15/45/6
f 1/3/5 12/36/5 10/27/5 2/5/5
f 4/11/3 9/23/3 11/32/3 3/9/3
f 2/6/6 10/28/6 9/24/6 4/12/6
